<mxfile host="app.diagrams.net" modified="2023-01-06T09:58:45.110Z" agent="5.0 (Macintosh; Intel Mac OS X 10_15_7) AppleWebKit/537.36 (KHTML, like Gecko) Chrome/108.0.0.0 Safari/537.36" version="20.7.4" etag="WY9dmsSFFfAasJKp3li3" type="github">
  <diagram id="Kmn3U0o-lQbY1sT2C89C" name="第 1 页">
    <mxGraphModel dx="954" dy="559" grid="1" gridSize="10" guides="1" tooltips="1" connect="1" arrows="1" fold="1" page="1" pageScale="1" pageWidth="827" pageHeight="1169" math="0" shadow="0">
      <root>
        <mxCell id="0" />
        <mxCell id="1" parent="0" />
        <mxCell id="jdkhn8Jcz8riBsAay745-6" style="edgeStyle=orthogonalEdgeStyle;rounded=0;orthogonalLoop=1;jettySize=auto;html=1;entryX=0;entryY=0.5;entryDx=0;entryDy=0;fontSize=14;strokeWidth=2;" edge="1" parent="1" source="jdkhn8Jcz8riBsAay745-1" target="jdkhn8Jcz8riBsAay745-4">
          <mxGeometry relative="1" as="geometry" />
        </mxCell>
        <mxCell id="jdkhn8Jcz8riBsAay745-16" style="edgeStyle=orthogonalEdgeStyle;rounded=0;orthogonalLoop=1;jettySize=auto;html=1;entryX=0;entryY=0.5;entryDx=0;entryDy=0;entryPerimeter=0;strokeWidth=2;fontSize=14;exitX=0.5;exitY=0;exitDx=0;exitDy=0;" edge="1" parent="1" source="jdkhn8Jcz8riBsAay745-1" target="jdkhn8Jcz8riBsAay745-3">
          <mxGeometry relative="1" as="geometry" />
        </mxCell>
        <mxCell id="jdkhn8Jcz8riBsAay745-1" value="Glight Web Service" style="rounded=0;whiteSpace=wrap;html=1;fillColor=#f8cecc;strokeColor=#b85450;strokeWidth=2;" vertex="1" parent="1">
          <mxGeometry x="60" y="175" width="120" height="60" as="geometry" />
        </mxCell>
        <mxCell id="jdkhn8Jcz8riBsAay745-11" value="" style="edgeStyle=orthogonalEdgeStyle;rounded=0;orthogonalLoop=1;jettySize=auto;html=1;strokeWidth=2;fontSize=14;" edge="1" parent="1" source="jdkhn8Jcz8riBsAay745-2" target="jdkhn8Jcz8riBsAay745-10">
          <mxGeometry relative="1" as="geometry" />
        </mxCell>
        <mxCell id="jdkhn8Jcz8riBsAay745-13" value="" style="edgeStyle=orthogonalEdgeStyle;rounded=0;orthogonalLoop=1;jettySize=auto;html=1;strokeWidth=2;fontSize=14;" edge="1" parent="1" source="jdkhn8Jcz8riBsAay745-2" target="jdkhn8Jcz8riBsAay745-5">
          <mxGeometry relative="1" as="geometry" />
        </mxCell>
        <mxCell id="jdkhn8Jcz8riBsAay745-19" style="edgeStyle=orthogonalEdgeStyle;rounded=0;orthogonalLoop=1;jettySize=auto;html=1;entryX=0.5;entryY=1;entryDx=0;entryDy=0;entryPerimeter=0;strokeWidth=2;fontSize=14;" edge="1" parent="1" source="jdkhn8Jcz8riBsAay745-2" target="jdkhn8Jcz8riBsAay745-3">
          <mxGeometry relative="1" as="geometry" />
        </mxCell>
        <mxCell id="jdkhn8Jcz8riBsAay745-2" value="Glight Compute Engine" style="rounded=0;whiteSpace=wrap;html=1;fillColor=#f8cecc;strokeColor=#b85450;strokeWidth=2;" vertex="1" parent="1">
          <mxGeometry x="342.5" y="290" width="150" height="70" as="geometry" />
        </mxCell>
        <mxCell id="jdkhn8Jcz8riBsAay745-3" value="&lt;b&gt;mysql&lt;/b&gt;" style="shape=cylinder3;whiteSpace=wrap;html=1;boundedLbl=1;backgroundOutline=1;size=15;fillColor=#dae8fc;strokeColor=#6c8ebf;strokeWidth=2;" vertex="1" parent="1">
          <mxGeometry x="260" y="40" width="60" height="80" as="geometry" />
        </mxCell>
        <mxCell id="jdkhn8Jcz8riBsAay745-8" value="" style="edgeStyle=orthogonalEdgeStyle;rounded=0;orthogonalLoop=1;jettySize=auto;html=1;strokeWidth=2;fontSize=14;" edge="1" parent="1" source="jdkhn8Jcz8riBsAay745-4" target="jdkhn8Jcz8riBsAay745-2">
          <mxGeometry relative="1" as="geometry" />
        </mxCell>
        <mxCell id="jdkhn8Jcz8riBsAay745-4" value="Engine Web Service" style="rounded=0;whiteSpace=wrap;html=1;fillColor=#f8cecc;strokeColor=#b85450;strokeWidth=2;" vertex="1" parent="1">
          <mxGeometry x="357.5" y="175" width="120" height="60" as="geometry" />
        </mxCell>
        <mxCell id="jdkhn8Jcz8riBsAay745-5" value="&lt;font style=&quot;font-size: 14px;&quot;&gt;&lt;b&gt;hadoop platform&lt;/b&gt;&lt;/font&gt;" style="rounded=0;whiteSpace=wrap;html=1;fillColor=#fff2cc;strokeColor=#d6b656;" vertex="1" parent="1">
          <mxGeometry x="50" y="420" width="620" height="60" as="geometry" />
        </mxCell>
        <mxCell id="jdkhn8Jcz8riBsAay745-7" value="2.提交流程" style="text;html=1;strokeColor=none;fillColor=none;align=center;verticalAlign=middle;whiteSpace=wrap;rounded=0;strokeWidth=2;fontSize=14;" vertex="1" parent="1">
          <mxGeometry x="210" y="170" width="80" height="30" as="geometry" />
        </mxCell>
        <mxCell id="jdkhn8Jcz8riBsAay745-9" value="3.提交任务" style="text;html=1;strokeColor=none;fillColor=none;align=center;verticalAlign=middle;whiteSpace=wrap;rounded=0;strokeWidth=2;fontSize=14;" vertex="1" parent="1">
          <mxGeometry x="398.5" y="243" width="120" height="30" as="geometry" />
        </mxCell>
        <mxCell id="jdkhn8Jcz8riBsAay745-10" value="shell脚本" style="shape=document;whiteSpace=wrap;html=1;boundedLbl=1;strokeWidth=2;fontSize=14;fillColor=#dae8fc;strokeColor=#6c8ebf;" vertex="1" parent="1">
          <mxGeometry x="610" y="300" width="80" height="50" as="geometry" />
        </mxCell>
        <mxCell id="jdkhn8Jcz8riBsAay745-12" value="5.执行脚本" style="text;html=1;strokeColor=none;fillColor=none;align=center;verticalAlign=middle;whiteSpace=wrap;rounded=0;strokeWidth=2;fontSize=14;" vertex="1" parent="1">
          <mxGeometry x="490" y="295" width="120" height="30" as="geometry" />
        </mxCell>
        <mxCell id="jdkhn8Jcz8riBsAay745-14" value="6.提交任务" style="text;html=1;strokeColor=none;fillColor=none;align=center;verticalAlign=middle;whiteSpace=wrap;rounded=0;strokeWidth=2;fontSize=14;" vertex="1" parent="1">
          <mxGeometry x="418.5" y="370" width="80" height="30" as="geometry" />
        </mxCell>
        <mxCell id="jdkhn8Jcz8riBsAay745-17" value="1.保存流程配置" style="text;html=1;strokeColor=none;fillColor=none;align=center;verticalAlign=middle;whiteSpace=wrap;rounded=0;strokeWidth=2;fontSize=14;" vertex="1" parent="1">
          <mxGeometry x="120" y="50" width="110" height="30" as="geometry" />
        </mxCell>
        <mxCell id="jdkhn8Jcz8riBsAay745-20" value="4.获取流程配置" style="text;html=1;strokeColor=none;fillColor=none;align=center;verticalAlign=middle;whiteSpace=wrap;rounded=0;strokeWidth=2;fontSize=14;" vertex="1" parent="1">
          <mxGeometry x="230" y="290" width="110" height="30" as="geometry" />
        </mxCell>
      </root>
    </mxGraphModel>
  </diagram>
</mxfile>
